<?xml version="1.0" encoding="iso-8859-1"?>
<!-- Uploaded to: SVG Repo, www.svgrepo.com, Generator: SVG Repo Mixer Tools -->
<svg fill="#000000" height="800px" width="800px" version="1.1" id="Capa_1" xmlns="http://www.w3.org/2000/svg" xmlns:xlink="http://www.w3.org/1999/xlink" 
	 viewBox="0 0 46 46" xml:space="preserve">
<g>
	<g>
		<path d="M29.701,27H15.123c-2.067,0-3.749,1.792-3.749,3.996c0,2.203,1.682,3.995,3.749,3.995h14.577
			c2.066,0,3.748-1.792,3.748-3.995C33.449,28.792,31.767,27,29.701,27z M29.701,32.99H15.123c-0.965,0-1.749-0.895-1.749-1.995
			c0-1.101,0.784-1.996,1.749-1.996h14.577c0.964,0,1.748,0.895,1.748,1.996C31.449,32.095,30.664,32.99,29.701,32.99z"/>
		<path d="M15.432,19.845h7.959c2.237,0,4.058-1.743,4.058-3.884c0-2.119-1.744-3.716-4.058-3.716h-7.959
			c-2.313,0-4.058,1.598-4.058,3.716C11.374,18.103,13.195,19.845,15.432,19.845z M15.432,14.245h7.959
			c1.023,0,2.058,0.589,2.058,1.716c0,1.039-0.923,1.884-2.058,1.884h-7.959c-1.135,0-2.058-0.845-2.058-1.884
			C13.374,14.834,14.409,14.245,15.432,14.245z"/>
		<path d="M45.432,20.737c-0.271-3.174-3.633-4.307-5.373-4.463c-0.386-0.035-1.123-0.034-1.74-0.025v-1.002
			C38.319,7.125,31.499,0,23.726,0h-8.988C6.992,0,0.449,6.982,0.449,15.247v16.08c0,8.064,6.41,14.625,14.289,14.625l7.636-0.004
			L22.355,46l10.636-0.001c0.004,0,0.021,0,0.049,0c0.832,0,11.641-0.259,12.396-12.963C45.446,32.661,45.693,23.794,45.432,20.737z
			 M43.438,32.949C42.775,44.096,33.442,44.015,33.019,44h-7.887l0.015-0.047H14.738c-6.776,0-12.289-5.663-12.289-12.625v-16.08
			C2.449,8.066,8.076,2,14.738,2h8.988c6.708,0,12.593,6.19,12.593,13.247V18.3l1.029-0.03c0.537-0.016,2.041-0.048,2.534-0.003
			c0.033,0.003,3.359,0.327,3.558,2.641C43.691,23.851,43.439,32.889,43.438,32.949z"/>
	</g>
</g>
</svg>